<svg xmlns="http://www.w3.org/2000/svg" width="600" height="900" viewBox="0 0 600 900"><defs><linearGradient id="sky" x2="0" y2="1"><stop stop-color="#627751"/><stop offset=".75" stop-color="#e0c88c"/><stop offset="1" stop-color="#627751"/></linearGradient><radialGradient id="light"><stop stop-color="#fff0c1" stop-opacity=".35"/><stop offset="1" stop-color="#fff0c1" stop-opacity="0"/></radialGradient></defs><rect width="600" height="900" fill="url(#sky)"/><ellipse cx="340" cy="280" rx="400" ry="340" fill="url(#light)"/><circle cx="410" cy="260" r="105" fill="#e0c88c" opacity=".92"/><path d="M-50 650 190 277 351 564 467 344 675 685Z" fill="#41636a"/><path d="m141 354 49-77 70 125-72-31-29 25zM410 424l57-80 61 103-64-25-23 24z" fill="#e2dac0" opacity=".8"/><path d="M0 718Q115 625 324 703T600 669V900H0Z" fill="#284d50"/><path d="M280 900q-80-94-12-197t-26-58" stroke="#c6cda4" stroke-width="27" fill="none" opacity=".32"/><path d="m-22 760 20 -92 20 92z" fill="#254747"/><path d="m37 760 20 -92 20 92z" fill="#254747"/><path d="m96 760 20 -92 20 92z" fill="#254747"/><path d="m155 760 20 -92 20 92z" fill="#254747"/><path d="m214 760 20 -92 20 92z" fill="#254747"/><path d="m273 760 20 -92 20 92z" fill="#254747"/><path d="m332 760 20 -92 20 92z" fill="#254747"/><path d="m391 760 20 -92 20 92z" fill="#254747"/><path d="m450 760 20 -92 20 92z" fill="#254747"/><path d="m509 760 20 -92 20 92z" fill="#254747"/><path d="m568 760 20 -92 20 92z" fill="#254747"/><path d="m627 760 20 -92 20 92z" fill="#254747"/><rect width="600" height="900" fill="#0b2037" opacity=".05"/></svg>