<svg xmlns="http://www.w3.org/2000/svg" width="600" height="900" viewBox="0 0 600 900"><defs><linearGradient id="sky" x2="0" y2="1"><stop stop-color="#0b7c90"/><stop offset=".75" stop-color="#ffbc86"/><stop offset="1" stop-color="#0b7c90"/></linearGradient><radialGradient id="light"><stop stop-color="#fff0c1" stop-opacity=".35"/><stop offset="1" stop-color="#fff0c1" stop-opacity="0"/></radialGradient></defs><rect width="600" height="900" fill="url(#sky)"/><ellipse cx="340" cy="280" rx="400" ry="340" fill="url(#light)"/><circle cx="410" cy="260" r="105" fill="#ffbc86" opacity=".92"/><path d="M0 560 130 280 230 530 310 455 410 575Z" fill="#224f55"/><path d="m25 565 104-285 49 234-49-95-24 101z" fill="#7b9d77"/><path d="M0 556 Q230 532 600 570V900H0Z" fill="#277e91"/><path d="M0 637Q180 590 380 640t220-3M0 707Q130 665 315 703t285-10M0 789Q200 748 440 786t180 0" fill="none" stroke="#a1d2c4" stroke-width="4" opacity=".5"/><path d="m345 560 79 10-13 15h-60z" fill="#d19857"/><path d="m374 570 1-132 58 118z" fill="#f5ddac"/><path d="m374 439-43 118 42 4z" fill="#ead2a3"/><rect width="600" height="900" fill="#0b2037" opacity=".05"/></svg>